<?xml version="1.0" encoding="UTF-8" standalone="no"?>
<svg
   width="718"
   height="419"
   version="1.1"
   viewBox="0 0 718 419"
   id="svg187"
   sodipodi:docname="bar-y-category.svg"
   inkscape:version="1.2.2 (b0a8486541, 2022-12-01)"
   xmlns:inkscape="http://www.inkscape.org/namespaces/inkscape"
   xmlns:sodipodi="http://sodipodi.sourceforge.net/DTD/sodipodi-0.dtd"
   xmlns:xlink="http://www.w3.org/1999/xlink"
   xmlns="http://www.w3.org/2000/svg"
   xmlns:svg="http://www.w3.org/2000/svg">
  <sodipodi:namedview
     id="namedview189"
     pagecolor="#ffffff"
     bordercolor="#666666"
     borderopacity="1.0"
     inkscape:showpageshadow="2"
     inkscape:pageopacity="0.0"
     inkscape:pagecheckerboard="0"
     inkscape:deskcolor="#d1d1d1"
     showgrid="false"
     inkscape:zoom="0.88998652"
     inkscape:cx="104.49596"
     inkscape:cy="115.73209"
     inkscape:window-width="1920"
     inkscape:window-height="998"
     inkscape:window-x="0"
     inkscape:window-y="0"
     inkscape:window-maximized="1"
     inkscape:current-layer="svg187" />
  <g
     inkscape:groupmode="layer"
     id="layer1"
     inkscape:label="Layer 1">
    <rect
       style="fill:#ffffe9;fill-rule:evenodd;stroke-width:0.133;stroke-linecap:round;stroke-dashoffset:3.1748;paint-order:stroke fill markers;fill-opacity:1"
       id="rect470"
       width="717.46283"
       height="419.43082"
       x="0"
       y="0"
       rx="1.9292801e-16"
       ry="1.9292801e-16" />
  </g>
  <rect
     width="718"
     height="419"
     x="0"
     y="0"
     id="0"
     fill="none" />
  <path
     d="M99.5 60L99.5 386.43"
     fill="none"
     stroke="#E0E6F1"
     id="path3" />
  <path
     d="M183.5 60L183.5 386.43"
     fill="none"
     stroke="#E0E6F1"
     id="path5" />
  <path
     d="M267.5 60L267.5 386.43"
     fill="none"
     stroke="#E0E6F1"
     id="path7" />
  <path
     d="M352.5 60L352.5 386.43"
     fill="none"
     stroke="#E0E6F1"
     id="path9" />
  <path
     d="M436.5 60L436.5 386.43"
     fill="none"
     stroke="#E0E6F1"
     id="path11" />
  <path
     d="M520.5 60L520.5 386.43"
     fill="none"
     stroke="#E0E6F1"
     id="path13" />
  <path
     d="M605.5 60L605.5 386.43"
     fill="none"
     stroke="#E0E6F1"
     id="path15" />
  <path
     d="M689.5 60L689.5 386.43"
     fill="none"
     stroke="#E0E6F1"
     id="path17" />
  <path
     d="M99.5 386.43L99.5 60"
     fill="none"
     stroke="#6E7079"
     stroke-linecap="round"
     id="path19" />
  <text
     dominant-baseline="central"
     text-anchor="start"
     style="font-size:12px;font-family:sans-serif;"
     transform="translate(704.28 386.43)"
     fill="#6E7079"
     id="text21">ns</text>
  <path
     d="M99.09 386.5L94.09 386.5"
     fill="none"
     stroke="#6E7079"
     id="path23" />
  <path
     d="M99.09 345.5L94.09 345.5"
     fill="none"
     stroke="#6E7079"
     id="path25" />
  <path
     d="M99.09 305.5L94.09 305.5"
     fill="none"
     stroke="#6E7079"
     id="path27" />
  <path
     d="M99.09 264.5L94.09 264.5"
     fill="none"
     stroke="#6E7079"
     id="path29" />
  <path
     d="M99.09 223.5L94.09 223.5"
     fill="none"
     stroke="#6E7079"
     id="path31" />
  <path
     d="M99.09 182.5L94.09 182.5"
     fill="none"
     stroke="#6E7079"
     id="path33" />
  <path
     d="M99.09 141.5L94.09 141.5"
     fill="none"
     stroke="#6E7079"
     id="path35" />
  <path
     d="M99.09 101.5L94.09 101.5"
     fill="none"
     stroke="#6E7079"
     id="path37" />
  <path
     d="M99.09 60.5L94.09 60.5"
     fill="none"
     stroke="#6E7079"
     id="path39" />
  <text
     dominant-baseline="central"
     text-anchor="end"
     style="font-size:12px;font-family:sans-serif;"
     transform="translate(91.09 366.0281)"
     fill="#6E7079"
     id="text41">nop</text>
  <text
     dominant-baseline="central"
     text-anchor="end"
     style="font-size:12px;font-family:sans-serif;"
     transform="translate(91.09 325.2244)"
     fill="#6E7079"
     id="text43">Constant</text>
  <text
     dominant-baseline="central"
     text-anchor="end"
     style="font-size:12px;font-family:sans-serif;"
     transform="translate(91.09 284.4206)"
     fill="#6E7079"
     id="text45">Addition</text>
  <text
     dominant-baseline="central"
     text-anchor="end"
     style="font-size:12px;font-family:sans-serif;"
     transform="translate(91.09 243.6169)"
     fill="#6E7079"
     id="text47">Some</text>
  <text
     dominant-baseline="central"
     text-anchor="end"
     style="font-size:12px;font-family:sans-serif;"
     transform="translate(91.09 202.8131)"
     fill="#6E7079"
     id="text49">String</text>
  <text
     dominant-baseline="central"
     text-anchor="end"
     style="font-size:12px;font-family:sans-serif;"
     xml:space="preserve"
     transform="translate(91.09 162.0094)"
     fill="#6E7079"
     id="text51">8 Additions</text>
  <text
     dominant-baseline="central"
     text-anchor="end"
     style="font-size:12px;font-family:sans-serif;"
     xml:space="preserve"
     transform="translate(91.09 121.2056)"
     fill="#6E7079"
     id="text53">16 Additions</text>
  <text
     dominant-baseline="central"
     text-anchor="end"
     style="font-size:12px;font-family:sans-serif;"
     xml:space="preserve"
     transform="translate(91.09 80.4019)"
     fill="#6E7079"
     id="text55">32 Additions</text>
  <text
     dominant-baseline="central"
     text-anchor="middle"
     style="font-size:12px;font-family:sans-serif;"
     y="6"
     transform="translate(99.09 394.43)"
     fill="#6E7079"
     id="text57">0</text>
  <text
     dominant-baseline="central"
     text-anchor="middle"
     style="font-size:12px;font-family:sans-serif;"
     y="6"
     transform="translate(183.4029 394.43)"
     fill="#6E7079"
     id="text59">300</text>
  <text
     dominant-baseline="central"
     text-anchor="middle"
     style="font-size:12px;font-family:sans-serif;"
     y="6"
     transform="translate(267.7157 394.43)"
     fill="#6E7079"
     id="text61">600</text>
  <text
     dominant-baseline="central"
     text-anchor="middle"
     style="font-size:12px;font-family:sans-serif;"
     y="6"
     transform="translate(352.0286 394.43)"
     fill="#6E7079"
     id="text63">900</text>
  <text
     dominant-baseline="central"
     text-anchor="middle"
     style="font-size:12px;font-family:sans-serif;"
     y="6"
     transform="translate(436.3414 394.43)"
     fill="#6E7079"
     id="text65">1,200</text>
  <text
     dominant-baseline="central"
     text-anchor="middle"
     style="font-size:12px;font-family:sans-serif;"
     y="6"
     transform="translate(520.6543 394.43)"
     fill="#6E7079"
     id="text67">1,500</text>
  <text
     dominant-baseline="central"
     text-anchor="middle"
     style="font-size:12px;font-family:sans-serif;"
     y="6"
     transform="translate(604.9671 394.43)"
     fill="#6E7079"
     id="text69">1,800</text>
  <text
     dominant-baseline="central"
     text-anchor="middle"
     style="font-size:12px;font-family:sans-serif;"
     y="6"
     transform="translate(689.28 394.43)"
     fill="#6E7079"
     id="text71">2,100</text>
  <path
     d="M99.09 351.1348l2.8526 0l0 13.5394l-2.8526 0Z"
     fill="#5470c6"
     id="path73" />
  <path
     d="M99.09 351.1348l2.8526 0l0 13.5394l-2.8526 0Z"
     fill="url(#zr0-p0)"
     id="path75" />
  <path
     d="M99.09 310.331l3.2573 0l0 13.5394l-3.2573 0Z"
     fill="#5470c6"
     id="path77" />
  <path
     d="M99.09 310.331l3.2573 0l0 13.5394l-3.2573 0Z"
     fill="url(#zr0-p0)"
     id="path79" />
  <path
     d="M99.09 269.5273l25.4906 0l0 13.5394l-25.4906 0Z"
     fill="#5470c6"
     id="path81" />
  <path
     d="M99.09 269.5273l25.4906 0l0 13.5394l-25.4906 0Z"
     fill="url(#zr0-p0)"
     id="path83" />
  <path
     d="M99.09 228.7235l35.6643 0l0 13.5394l-35.6643 0Z"
     fill="#5470c6"
     id="path85" />
  <path
     d="M99.09 228.7235l35.6643 0l0 13.5394l-35.6643 0Z"
     fill="url(#zr0-p0)"
     id="path87" />
  <path
     d="M99.09 187.9198l27.5029 0l0 13.5394l-27.5029 0Z"
     fill="#5470c6"
     id="path89" />
  <path
     d="M99.09 187.9198l27.5029 0l0 13.5394l-27.5029 0Z"
     fill="url(#zr0-p0)"
     id="path91" />
  <path
     d="M99.09 147.116l27.7108 0l0 13.5394l-27.7108 0Z"
     fill="#5470c6"
     id="path93" />
  <path
     d="M99.09 147.116l27.7108 0l0 13.5394l-27.7108 0Z"
     fill="url(#zr0-p0)"
     id="path95" />
  <path
     d="M99.09 106.3123l28.0565 0l0 13.5394l-28.0565 0Z"
     fill="#5470c6"
     id="path97" />
  <path
     d="M99.09 106.3123l28.0565 0l0 13.5394l-28.0565 0Z"
     fill="url(#zr0-p0)"
     id="path99" />
  <path
     d="M99.09 65.5085l34.484 0l0 13.5394l-34.484 0Z"
     fill="#5470c6"
     id="path101" />
  <path
     d="M99.09 65.5085l34.484 0l0 13.5394l-34.484 0Z"
     fill="url(#zr0-p0)"
     id="path103" />
  <path
     d="M99.09 367.3821l0 0l0 13.5394l0 0Z"
     fill="#91cc75"
     id="path105" />
  <path
     d="M99.09 367.3821l0 0l0 13.5394l0 0Z"
     fill="url(#zr0-p1)"
     id="path107" />
  <path
     d="M99.09 326.5783l5.3904 0l0 13.5394l-5.3904 0Z"
     fill="#91cc75"
     id="path109" />
  <path
     d="M99.09 326.5783l5.3904 0l0 13.5394l-5.3904 0Z"
     fill="url(#zr0-p1)"
     id="path111" />
  <path
     d="M99.09 285.7746l34.3434 0l0 13.5394l-34.3434 0Z"
     fill="#91cc75"
     id="path113" />
  <path
     d="M99.09 285.7746l34.3434 0l0 13.5394l-34.3434 0Z"
     fill="url(#zr0-p1)"
     id="path115" />
  <path
     d="M99.09 244.9708l68.0686 0l0 13.5394l-68.0686 0Z"
     fill="#91cc75"
     id="path117" />
  <path
     d="M99.09 244.9708l68.0686 0l0 13.5394l-68.0686 0Z"
     fill="url(#zr0-p1)"
     id="path119" />
  <path
     d="M99.09 204.1671l33.6689 0l0 13.5394l-33.6689 0Z"
     fill="#91cc75"
     id="path121" />
  <path
     d="M99.09 204.1671l33.6689 0l0 13.5394l-33.6689 0Z"
     fill="url(#zr0-p1)"
     id="path123" />
  <path
     d="M99.09 163.3633l131.2751 0l0 13.5394l-131.2751 0Z"
     fill="#91cc75"
     id="path125" />
  <path
     d="M99.09 163.3633l131.2751 0l0 13.5394l-131.2751 0Z"
     fill="url(#zr0-p1)"
     id="path127" />
  <path
     d="M99.09 122.5596l261.3699 0l0 13.5394l-261.3699 0Z"
     fill="#91cc75"
     id="path129" />
  <path
     d="M99.09 122.5596l261.3699 0l0 13.5394l-261.3699 0Z"
     fill="url(#zr0-p1)"
     id="path131" />
  <path
     d="M99.09 81.7558l513.7463 0l0 13.5394l-513.7463 0Z"
     fill="#91cc75"
     id="path133" />
  <path
     d="M99.09 81.7558l513.7463 0l0 13.5394l-513.7463 0Z"
     fill="url(#zr0-p1)"
     id="path135" />
  <path
     d="m 517.625,32 h 166.75 v 24 h -166.75 z"
     fill="#000000"
     fill-opacity="0"
     stroke="#cccccc"
     stroke-width="0"
     id="path137" />
  <path
     d="m 526.125,37 h 18 a 3.5,3.5 0 0 1 3.5,3.5 v 7 a 3.5,3.5 0 0 1 -3.5,3.5 h -18 a 3.5,3.5 0 0 1 -3.5,-3.5 v -7 a 3.5,3.5 0 0 1 3.5,-3.5"
     fill="#5470c6"
     id="path139" />
  <path
     d="m 526.125,37 h 18 a 3.5,3.5 0 0 1 3.5,3.5 v 7 a 3.5,3.5 0 0 1 -3.5,3.5 h -18 a 3.5,3.5 0 0 1 -3.5,-3.5 v -7 a 3.5,3.5 0 0 1 3.5,-3.5"
     fill="url(#zr0-p0)"
     id="path141"
     style="fill:url(#pattern1092)" />
  <text
     dominant-baseline="central"
     text-anchor="start"
     style="font-size:12px;font-family:sans-serif"
     x="552.625"
     y="44"
     fill="#333333"
     id="text143">Gruel</text>
  <path
     d="m 596.375,37 h 18 a 3.5,3.5 0 0 1 3.5,3.5 v 7 a 3.5,3.5 0 0 1 -3.5,3.5 h -18 a 3.5,3.5 0 0 1 -3.5,-3.5 v -7 a 3.5,3.5 0 0 1 3.5,-3.5"
     fill="#91cc75"
     id="path145" />
  <path
     d="m 596.375,37 h 18 a 3.5,3.5 0 0 1 3.5,3.5 v 7 a 3.5,3.5 0 0 1 -3.5,3.5 h -18 a 3.5,3.5 0 0 1 -3.5,-3.5 v -7 a 3.5,3.5 0 0 1 3.5,-3.5"
     fill="url(#zr0-p1)"
     id="path147"
     style="fill:url(#pattern1094)" />
  <text
     dominant-baseline="central"
     text-anchor="start"
     style="font-size:12px;font-family:sans-serif"
     x="622.875"
     y="44"
     fill="#333333"
     id="text149">Govaluate</text>
  <path
     d="M-5 -5l283.55 0l0 28l-283.55 0Z"
     transform="translate(5 5)"
     fill="rgb(0,0,0)"
     fill-opacity="0"
     stroke="#ccc"
     stroke-width="0"
     id="path151" />
  <text
     dominant-baseline="central"
     text-anchor="start"
     style="font-size:18px;font-family:sans-serif;font-weight:bold;"
     xml:space="preserve"
     y="9"
     transform="translate(5 5)"
     fill="#464646"
     id="text153">Benchmarks against Govaluate</text>
  <defs
     id="defs185">
    <pattern
       inkscape:collect="always"
       xlink:href="#zr0-p1"
       id="pattern1094"
       patternTransform="translate(350.875,5)" />
    <pattern
       inkscape:collect="always"
       xlink:href="#zr0-p0"
       id="pattern1092"
       patternTransform="rotate(30,130.98237,526.15338)" />
    <pattern
       width="1"
       height="7"
       patternUnits="userSpaceOnUse"
       patternTransform="rotate(29.999999999999996)"
       id="zr0-p0">
      <g
         id="g163">
        <path
           d="M0 -7l1 0l0 2l-1 0Z"
           fill="rgb(0,0,0)"
           fill-opacity="0.2"
           id="path155" />
        <path
           d="M1 -7l1 0l0 2l-1 0Z"
           fill="rgb(0,0,0)"
           fill-opacity="0.2"
           id="path157" />
        <path
           d="M0 0l1 0l0 2l-1 0Z"
           fill="rgb(0,0,0)"
           fill-opacity="0.2"
           id="path159" />
        <path
           d="M1 0l1 0l0 2l-1 0Z"
           fill="rgb(0,0,0)"
           fill-opacity="0.2"
           id="path161" />
      </g>
    </pattern>
    <pattern
       width="16"
       height="12"
       patternUnits="userSpaceOnUse"
       id="zr0-p1">
      <g
         id="g182">
        <path
           d="M6.4 -3A2.4 2.4 0 1 1 6.4 -3.0002"
           fill="rgb(0,0,0)"
           fill-opacity="0.2"
           id="path166" />
        <path
           d="M22.4 -3A2.4 2.4 0 1 1 22.4 -3.0002"
           fill="rgb(0,0,0)"
           fill-opacity="0.2"
           id="path168" />
        <path
           d="M0 3A0 0 0 1 1 0 3"
           fill="rgb(0,0,0)"
           fill-opacity="0.2"
           id="path170" />
        <path
           d="M14.4 3A2.4 2.4 0 1 1 14.4 2.9998"
           fill="rgb(0,0,0)"
           fill-opacity="0.2"
           id="path172" />
        <path
           d="M16 3A0 0 0 1 1 16 3"
           fill="rgb(0,0,0)"
           fill-opacity="0.2"
           id="path174" />
        <path
           d="M30.4 3A2.4 2.4 0 1 1 30.4 2.9998"
           fill="rgb(0,0,0)"
           fill-opacity="0.2"
           id="path176" />
        <path
           d="M6.4 9A2.4 2.4 0 1 1 6.4 8.9998"
           fill="rgb(0,0,0)"
           fill-opacity="0.2"
           id="path178" />
        <path
           d="M22.4 9A2.4 2.4 0 1 1 22.4 8.9998"
           fill="rgb(0,0,0)"
           fill-opacity="0.2"
           id="path180" />
      </g>
    </pattern>
  </defs>
</svg>
